# xmcd
#
# Track frame offsets:
#	150
#	22878
#	38193
#	62793
#	83228
#	113768
#	131145
#	148535
#	166605
#	189093
#	213435
#
# Disc length: 3095 seconds
# Revision: 0
# Processed by: cddbd v1.5.2PL0 Copyright (c) Steve Scherf et al.
# Submitted via: dBpowerAMP V12.0
#
DISCID=8c0c150b
DTITLE=Memphis Horns - The Memphis Horns - Wayne Jackson and Andrew Love With Special Guests
DYEAR=1995
DGENRE=Soul
TTITLE0=Take me to The River
TTITLE1=Fa-Fa-Fa-Fa-Fa (Sad Song)
TTITLE2=I've Been Loving You Too Long
TTITLE3=Somebody Have Mercy
TTITLE4=Break The Chain
TTITLE5=Holding on to Love
TTITLE6=I'm Just Another Soldier
TTITLE7=Rumors
TTITLE8=Roller Coaster
TTITLE9=You Don't Miss Your Water
TTITLE10=Desire in Your Eyes
EXTD=
EXTT0=
EXTT1=
EXTT2=
EXTT3=
EXTT4=
EXTT5=
EXTT6=
EXTT7=
EXTT8=
EXTT9=
EXTT10=
PLAYORDER=
